<?xml version="1.0" standalone="no"?>
<!DOCTYPE svg PUBLIC "-//W3C//DTD SVG 20010904//EN"
 "http://www.w3.org/TR/2001/REC-SVG-20010904/DTD/svg10.dtd">
<svg version="1.0" xmlns="http://www.w3.org/2000/svg"
 width="450.000000pt" height="450.000000pt" viewBox="0 0 450.000000 450.000000"
 preserveAspectRatio="xMidYMid meet">
<metadata>
Created by potrace 1.11, written by Peter Selinger 2001-2013
</metadata>
<g transform="translate(0.000000,450.000000) scale(0.100000,-0.100000)"
fill="#000000" stroke="none">
<path d="M3269 4286 c-2 -2 -51 -6 -108 -10 -58 -4 -108 -9 -113 -12 -5 -3
-23 -7 -41 -9 -18 -2 -42 -6 -54 -9 -13 -3 -33 -9 -45 -12 -13 -3 -30 -7 -38
-9 -8 -2 -15 -4 -15 -5 0 -1 -7 -3 -15 -5 -74 -15 -251 -101 -325 -158 -72
-54 -155 -149 -182 -206 -44 -95 -39 -147 34 -331 69 -174 105 -293 109 -360
1 -25 3 -45 4 -45 1 0 3 -11 6 -25 3 -22 -4 -29 -69 -64 -214 -116 -268 -189
-219 -299 32 -71 103 -133 209 -183 61 -28 82 -54 45 -54 -82 0 -116 -242 -42
-300 23 -18 33 -69 32 -160 -1 -115 48 -238 126 -317 18 -17 32 -34 32 -37 0
-6 -48 2 -70 11 -8 3 -17 7 -20 8 -31 11 -57 22 -126 56 -44 21 -85 39 -91 39
-6 0 -28 8 -49 17 -22 9 -42 16 -46 15 -5 -1 -8 2 -8 8 0 6 -3 9 -7 8 -5 -1
-51 14 -103 33 -194 74 -265 100 -282 104 -9 2 -26 9 -37 15 -12 6 -21 7 -21
3 0 -4 -4 -3 -8 2 -9 14 -397 138 -495 160 -12 2 -40 9 -62 15 -22 6 -47 12
-55 14 -21 5 -85 -18 -105 -38 -13 -13 -20 -14 -38 -4 -12 6 -23 11 -24 10
-16 -11 -37 6 -57 46 -14 26 -37 61 -51 77 -37 42 -64 98 -72 148 -8 54 -8 59
8 146 l13 73 -28 23 c-48 38 -113 9 -153 -67 -24 -46 -28 -76 -19 -133 19
-109 18 -130 -7 -151 -18 -16 -29 -19 -47 -12 -30 11 -250 9 -250 -2 0 -6 -25
-8 -155 -13 -143 -5 -136 7 -133 -236 3 -192 4 -204 23 -215 11 -6 22 -14 25
-17 9 -10 171 -61 209 -66 20 -2 52 -6 71 -10 19 -3 40 -7 45 -8 6 0 33 -5 60
-10 28 -4 59 -9 70 -11 11 -1 20 -3 20 -4 0 -2 54 -7 135 -13 27 -2 44 -8 43
-15 -2 -6 7 -17 20 -23 12 -7 25 -17 29 -23 4 -5 19 -10 34 -11 22 0 29 -6 35
-28 11 -42 25 -54 108 -96 118 -60 146 -75 149 -83 2 -5 10 -8 17 -8 8 0 21
-7 29 -16 9 -8 16 -13 16 -9 0 3 20 -8 44 -25 25 -16 47 -30 51 -30 3 0 33
-18 65 -40 32 -22 64 -40 69 -40 6 0 11 -4 11 -10 0 -5 6 -10 14 -10 8 0 21
-6 28 -14 8 -7 29 -22 47 -32 55 -31 240 -152 251 -164 3 -3 30 -24 60 -47 71
-54 98 -78 193 -169 42 -41 81 -74 86 -74 16 0 19 -26 10 -76 -12 -60 -18 -98
-23 -144 -16 -129 -19 -159 -20 -193 0 -20 -3 -37 -6 -37 -3 0 -6 -17 -7 -38
-5 -109 -14 -226 -19 -233 -3 -5 543 -9 1250 -9 l1256 0 0 530 0 530 -62 46
c-105 78 -224 128 -293 124 -69 -5 -202 3 -270 16 -29 5 -75 43 -75 63 0 5 -6
11 -12 14 -7 2 7 13 32 25 83 38 224 138 295 209 126 125 174 214 224 412 l27
106 36 -3 c26 -3 46 3 67 19 l31 23 0 138 c0 133 -1 139 -22 147 -23 8 -52 7
-80 -4 -14 -5 -16 -2 -12 23 3 18 -1 34 -10 41 -10 8 -13 25 -10 53 2 23 -1
47 -7 54 -5 7 -28 63 -49 125 l-39 112 40 66 c34 57 53 103 66 161 7 34 11
116 5 125 -3 5 -7 20 -8 34 -8 75 -97 182 -191 229 -58 29 -190 68 -200 59 -8
-9 -60 13 -61 26 0 7 -4 32 -7 57 -10 83 -15 164 -19 316 -4 169 -11 191 -77
254 -37 35 -144 95 -186 105 -10 2 -47 11 -83 20 -36 9 -96 18 -135 21 -38 3
-86 7 -106 9 -20 2 -38 3 -40 1z"/>
</g>
</svg>
